{"accessors":[{"bufferView":0,"byteOffset":0,"componentType":5126,"count":36,"max":[0.300000011920929,0.400000005960464,0.125],"min":[-0.300000011920929,-0.400000005960464,-0.125],"normalized":false,"type":"VEC3"},{"bufferView":1,"byteOffset":0,"componentType":5126,"count":36,"max":[0.0,0.0,0.0000763009302318096,-1.0],"min":[-1.0,-1.0,-1.0,-1.0],"normalized":false,"type":"VEC4"},{"bufferView":2,"byteOffset":0,"componentType":5126,"count":36,"max":[1.0,1.0,1.0],"min":[-1.0,-1.0,-1.0],"normalized":false,"type":"VEC3"},{"bufferView":3,"byteOffset":0,"componentType":5126,"count":36,"max":[1.0,1.0],"min":[0.0,0.0],"normalized":false,"type":"VEC2"},{"bufferView":4,"byteOffset":0,"componentType":5123,"count":36,"max":[35.0],"min":[0.0],"normalized":false,"type":"SCALAR"},{"bufferView":5,"byteOffset":0,"componentType":5126,"count":360,"max":[0.25,0.25,0.25],"min":[-0.25,-0.25,-0.25],"normalized":false,"type":"VEC3"},{"bufferView":6,"byteOffset":0,"componentType":5126,"count":360,"max":[1.0,0.109320349991322,1.0,1.0],"min":[-1.0,-0.151949554681778,-1.0,1.0],"normalized":false,"type":"VEC4"},{"bufferView":7,"byteOffset":0,"componentType":5126,"count":360,"max":[1.0,1.0,1.0],"min":[-1.0,-1.0,-1.0],"normalized":false,"type":"VEC3"},{"bufferView":8,"byteOffset":0,"componentType":5126,"count":360,"max":[1.0,1.0],"min":[0.0,0.0],"normalized":false,"type":"VEC2"},{"bufferView":9,"byteOffset":0,"componentType":5123,"count":360,"max":[359.0],"min":[0.0],"normalized":false,"type":"SCALAR"},{"bufferView":10,"byteOffset":0,"componentType":5126,"count":1338,"max":[0.129999995231628,0.129999995231628,0.129999995231628],"min":[-0.207524061203003,-0.807772517204285,-0.129999995231628],"normalized":false,"type":"VEC3"},{"bufferView":11,"byteOffset":0,"componentType":5126,"count":1338,"max":[1.0,0.147759050130844,1.0,1.0],"min":[-1.0,-0.998662889003754,-1.0,-1.0],"normalized":false,"type":"VEC4"},{"bufferView":12,"byteOffset":0,"componentType":5126,"count":1338,"max":[1.0,1.0,1.0],"min":[-1.0,-0.998665392398834,-1.0],"normalized":false,"type":"VEC3"},{"bufferView":13,"byteOffset":0,"componentType":5126,"count":1338,"max":[1.0,1.0],"min":[0.0,0.0],"normalized":false,"type":"VEC2"},{"bufferView":14,"byteOffset":0,"componentType":5123,"count":1338,"max":[1337.0],"min":[0.0],"normalized":false,"type":"SCALAR"},{"bufferView":15,"byteOffset":0,"componentType":5126,"count":1422,"max":[0.20753139257431,0.129999995231628,0.129999995231628],"min":[-0.129999995231628,-0.807237148284912,-0.129999995231628],"normalized":false,"type":"VEC3"},{"bufferView":16,"byteOffset":0,"componentType":5126,"count":1422,"max":[1.0,0.147848546504974,1.0,1.0],"min":[-1.0,-0.99896502494812,-1.0,-1.0],"normalized":false,"type":"VEC4"},{"bufferView":17,"byteOffset":0,"componentType":5126,"count":1422,"max":[1.0,1.0,1.0],"min":[-1.0,-1.0,-1.0],"normalized":false,"type":"VEC3"},{"bufferView":18,"byteOffset":0,"componentType":5126,"count":1422,"max":[1.0,1.0],"min":[0.0,0.0],"normalized":false,"type":"VEC2"},{"bufferView":19,"byteOffset":0,"componentType":5123,"count":1422,"max":[1421.0],"min":[0.0],"normalized":false,"type":"SCALAR"},{"bufferView":20,"byteOffset":0,"componentType":5126,"count":420,"max":[0.125999987125397,0.25,0.125],"min":[-0.124000012874603,-0.779999971389771,-0.125],"normalized":false,"type":"VEC3"},{"bufferView":21,"byteOffset":0,"componentType":5126,"count":420,"max":[0.993997633457184,0.090815931558609,1.0,1.0],"min":[-1.0,-1.0,-1.0,-1.0],"normalized":false,"type":"VEC4"},{"bufferView":22,"byteOffset":0,"componentType":5126,"count":420,"max":[1.0,1.0,1.0],"min":[-1.0,-1.0,-1.0],"normalized":false,"type":"VEC3"},{"bufferView":23,"byteOffset":0,"componentType":5126,"count":420,"max":[1.0,1.0],"min":[0.0,0.0],"normalized":false,"type":"VEC2"},{"bufferView":24,"byteOffset":0,"componentType":5123,"count":420,"max":[419.0],"min":[0.0],"normalized":false,"type":"SCALAR"},{"bufferView":25,"byteOffset":0,"componentType":5126,"count":420,"max":[0.125,0.25,0.125],"min":[-0.125,-0.779999971389771,-0.125],"normalized":false,"type":"VEC3"},{"bufferView":26,"byteOffset":0,"componentType":5126,"count":420,"max":[0.993997633457184,0.090815931558609,1.0,1.0],"min":[-1.0,-1.0,-1.0,-1.0],"normalized":false,"type":"VEC4"},{"bufferView":27,"byteOffset":0,"componentType":5126,"count":420,"max":[1.0,1.0,1.0],"min":[-1.0,-1.0,-1.0],"normalized":false,"type":"VEC3"},{"bufferView":28,"byteOffset":0,"componentType":5126,"count":420,"max":[1.0,1.0],"min":[0.0,0.0],"normalized":false,"type":"VEC2"},{"bufferView":29,"byteOffset":0,"componentType":5123,"count":420,"max":[419.0],"min":[0.0],"normalized":false,"type":"SCALAR"}],"asset":{"generator":"Godot Engine v4.4.1.stable.official@49a5bc7b616bd04689a2c89e89bda41f50241464","version":"2.0"},"bufferViews":[{"buffer":0,"byteLength":432,"byteOffset":0,"byteStride":12,"target":34962},{"buffer":0,"byteLength":576,"byteOffset":432,"byteStride":16,"target":34962},{"buffer":0,"byteLength":432,"byteOffset":1008,"byteStride":12,"target":34962},{"buffer":0,"byteLength":288,"byteOffset":1440,"byteStride":8,"target":34962},{"buffer":0,"byteLength":72,"byteOffset":1728,"target":34963},{"buffer":0,"byteLength":4320,"byteOffset":1800,"byteStride":12,"target":34962},{"buffer":0,"byteLength":5760,"byteOffset":6120,"byteStride":16,"target":34962},{"buffer":0,"byteLength":4320,"byteOffset":11880,"byteStride":12,"target":34962},{"buffer":0,"byteLength":2880,"byteOffset":16200,"byteStride":8,"target":34962},{"buffer":0,"byteLength":720,"byteOffset":19080,"target":34963},{"buffer":0,"byteLength":16056,"byteOffset":19800,"byteStride":12,"target":34962},{"buffer":0,"byteLength":21408,"byteOffset":35856,"byteStride":16,"target":34962},{"buffer":0,"byteLength":16056,"byteOffset":57264,"byteStride":12,"target":34962},{"buffer":0,"byteLength":10704,"byteOffset":73320,"byteStride":8,"target":34962},{"buffer":0,"byteLength":2676,"byteOffset":84024,"target":34963},{"buffer":0,"byteLength":17064,"byteOffset":86700,"byteStride":12,"target":34962},{"buffer":0,"byteLength":22752,"byteOffset":103764,"byteStride":16,"target":34962},{"buffer":0,"byteLength":17064,"byteOffset":126516,"byteStride":12,"target":34962},{"buffer":0,"byteLength":11376,"byteOffset":143580,"byteStride":8,"target":34962},{"buffer":0,"byteLength":2844,"byteOffset":154956,"target":34963},{"buffer":0,"byteLength":5040,"byteOffset":157800,"byteStride":12,"target":34962},{"buffer":0,"byteLength":6720,"byteOffset":162840,"byteStride":16,"target":34962},{"buffer":0,"byteLength":5040,"byteOffset":169560,"byteStride":12,"target":34962},{"buffer":0,"byteLength":3360,"byteOffset":174600,"byteStride":8,"target":34962},{"buffer":0,"byteLength":840,"byteOffset":177960,"target":34963},{"buffer":0,"byteLength":5040,"byteOffset":178800,"byteStride":12,"target":34962},{"buffer":0,"byteLength":6720,"byteOffset":183840,"byteStride":16,"target":34962},{"buffer":0,"byteLength":5040,"byteOffset":190560,"byteStride":12,"target":34962},{"buffer":0,"byteLength":3360,"byteOffset":195600,"byteStride":8,"target":34962},{"buffer":0,"byteLength":840,"byteOffset":198960,"target":34963}],"buffers":[{"byteLength":199800,"uri":"character0.bin"}],"materials":[{},{},{},{},{},{}],"meshes":[{"extras":{"targetNames":[]},"primitives":[{"attributes":{"NORMAL":2,"POSITION":0,"TANGENT":1,"TEXCOORD_0":3},"indices":4,"material":0,"mode":4}]},{"extras":{"targetNames":[]},"primitives":[{"attributes":{"NORMAL":7,"POSITION":5,"TANGENT":6,"TEXCOORD_0":8},"indices":9,"material":1,"mode":4}]},{"extras":{"targetNames":[]},"primitives":[{"attributes":{"NORMAL":12,"POSITION":10,"TANGENT":11,"TEXCOORD_0":13},"indices":14,"material":2,"mode":4}]},{"extras":{"targetNames":[]},"primitives":[{"attributes":{"NORMAL":17,"POSITION":15,"TANGENT":16,"TEXCOORD_0":18},"indices":19,"material":3,"mode":4}]},{"extras":{"targetNames":[]},"primitives":[{"attributes":{"NORMAL":22,"POSITION":20,"TANGENT":21,"TEXCOORD_0":23},"indices":24,"material":4,"mode":4}]},{"extras":{"targetNames":[]},"primitives":[{"attributes":{"NORMAL":27,"POSITION":25,"TANGENT":26,"TEXCOORD_0":28},"indices":29,"material":5,"mode":4}]}],"nodes":[{"children":[1,2,3,8,13,17],"name":"body"},{"mesh":0,"name":"torso2","translation":[0.0,0.899999976158142,0.0]},{"mesh":1,"name":"head2","translation":[0.0,1.54802000522614,0.0]},{"children":[4],"name":"right Arm"},{"children":[5],"mesh":2,"name":"right Shoulder2","translation":[-0.284999996423721,1.25,0.0]},{"children":[6],"name":"right Bisep","rotation":[-0.00201858463697135,-0.0023958261590451,-0.0740651413798332,0.997248470783234],"translation":[-0.100000001490116,-0.215000003576279,0.0]},{"children":[7],"name":"right Elbow","rotation":[0.00201858626678586,0.00239582429639995,0.0740649700164795,0.997248470783234],"translation":[-0.00179898994974792,-0.174307003617287,-0.00130576000083238]},{"name":"right Forearm","rotation":[-0.0185694452375174,0.0311283674091101,0.0179650876671076,0.999181389808655],"translation":[0.00710341008380055,-0.216344997286797,-0.000453104003099725]},{"children":[9],"name":"left Arm"},{"children":[10],"mesh":3,"name":"left Shoulder2","translation":[0.284999996423721,1.25,0.0]},{"children":[11],"name":"left Bisep","rotation":[0.997243881225586,0.0741010010242462,-0.00241677090525627,-0.00280480133369565],"scale":[-0.999999523162842,-0.999999582767487,-1.00000035762787],"translation":[0.100000001490116,-0.215000003576279,0.0]},{"children":[12],"name":"left Elbow","rotation":[0.00201858626678586,0.00239582429639995,0.0740649700164795,0.997248470783234],"translation":[-0.00179898994974792,-0.174307003617287,-0.00130576000083238]},{"name":"left Forearm","rotation":[-0.0185694452375174,0.0311283674091101,0.0179650876671076,0.999181389808655],"translation":[0.00710341008380055,-0.216344997286797,-0.000453104003099725]},{"children":[14],"name":"leftLeg","translation":[0.0,0.899999976158142,0.0]},{"children":[15],"mesh":4,"name":"left Thigh2","translation":[0.200000002980232,-0.649999976158142,0.0]},{"children":[16],"name":"left knee","translation":[0.000999987125396729,-0.25,0.0]},{"name":"left Thigh3","translation":[0.0,-0.280000001192093,0.0]},{"children":[18],"name":"rightLeg","translation":[0.0,0.899999976158142,0.0]},{"children":[19],"mesh":5,"name":"right Thigh2","translation":[-0.200000002980232,-0.649999976158142,0.0]},{"children":[20],"name":"right knee","translation":[0.0,-0.25,0.0]},{"name":"right Thigh3","translation":[0.0,-0.280000001192093,0.0]}],"scene":0,"scenes":[{"name":"character","nodes":[0]}]}